<svg xmlns="http://www.w3.org/2000/svg" width="189.799" height="190.784" viewBox="0 0 189.799 190.784">
  <g id="Group_224" data-name="Group 224" transform="translate(9237.962 -497.642)">
    <path id="Path_199" data-name="Path 199" d="M41.757,4.256A19.839,19.839,0,0,0,15.6,14.591l-.925,2.167L51.232,32.416l.905-2.115A19.843,19.843,0,0,0,41.757,4.256Z" transform="translate(-9159.829 510.236)" fill="none"/>
    <path id="Path_200" data-name="Path 200" d="M171.065,17.837H2.991A1.164,1.164,0,0,0,1.827,19V35.817A39.517,39.517,0,0,0,41.28,75.27h91.472A39.517,39.517,0,0,0,172.2,35.817V19a1.164,1.164,0,0,0-1.138-1.164Z" transform="translate(-9230.087 593.546)" fill="none"/>
    <path id="Path_201" data-name="Path 201" d="M179.267,104.291h-2.49V34.951a34.524,34.524,0,0,0-55.44-27.643,29.247,29.247,0,0,0-36.186,16.3l-.918,2.18A9.624,9.624,0,0,0,89.276,38.45l36.658,15.762h0a9.641,9.641,0,0,0,12.657-5.038L139.523,47a29.1,29.1,0,0,0-8.447-34.362,24.823,24.823,0,0,1,36.012,22.333v69.32H11.193A10.879,10.879,0,0,0,.327,115.156v16.816a49.2,49.2,0,0,0,26.142,43.417L21,183.461a4.85,4.85,0,1,0,8.027,5.446l6.635-9.78A48.921,48.921,0,0,0,49.5,181.145h91.452a49.1,49.1,0,0,0,13.834-2.011l6.629,9.773a4.85,4.85,0,1,0,8.027-5.446l-5.472-8.065a49.2,49.2,0,0,0,26.155-43.424V115.156a10.879,10.879,0,0,0-10.859-10.866ZM130.6,43.146l-.905,2.115L93.137,29.6l.925-2.167A19.885,19.885,0,0,1,130.6,43.146Zm49.8,88.826a39.517,39.517,0,0,1-39.453,39.453H49.5a39.517,39.517,0,0,1-39.453-39.452V115.156a1.164,1.164,0,0,1,1.164-1.164H179.267a1.164,1.164,0,0,1,1.158,1.164Z" transform="translate(-9238.289 497.391)" fill="#1c843c"/>
    <path id="Path_202" data-name="Path 202" d="M19.314,8.64l-5.6,6.092A4.851,4.851,0,0,0,20.828,21.3l5.607-6.093A4.857,4.857,0,0,0,19.288,8.64Z" transform="translate(-9171.114 535.344)" fill="#1c843c"/>
    <path id="Path_203" data-name="Path 203" d="M17.7,24.5a4.857,4.857,0,0,0,6.468-2.348L27.5,14.994a4.851,4.851,0,0,0-8.8-4.094l-3.331,7.147A4.851,4.851,0,0,0,17.7,24.5Z" transform="translate(-9158.528 540.282)" fill="#1c843c"/>
    <path id="Path_204" data-name="Path 204" d="M22.094,26.921A4.851,4.851,0,0,0,26.9,22.7l1.067-8.207a4.852,4.852,0,0,0-9.624-1.242l-1.061,8.2a4.851,4.851,0,0,0,4.191,5.433A5.1,5.1,0,0,0,22.094,26.921Z" transform="translate(-9145.806 545.32)" fill="#1c843c"/>
  </g>
</svg>
