<svg width="44" height="44" viewBox="0 0 44 44" fill="none" xmlns="http://www.w3.org/2000/svg">
<path d="M23 18V14C23 13.7167 23.096 13.479 23.288 13.287C23.48 13.095 23.7173 12.9993 24 13H30C30.2833 13 30.521 13.096 30.713 13.288C30.905 13.48 31.0007 13.7173 31 14V18C31 18.2833 30.904 18.521 30.712 18.713C30.52 18.905 30.2827 19.0007 30 19H24C23.7167 19 23.479 18.904 23.287 18.712C23.095 18.52 22.9993 18.2827 23 18ZM13 22V14C13 13.7167 13.096 13.479 13.288 13.287C13.48 13.095 13.7173 12.9993 14 13H20C20.2833 13 20.521 13.096 20.713 13.288C20.905 13.48 21.0007 13.7173 21 14V22C21 22.2833 20.904 22.521 20.712 22.713C20.52 22.905 20.2827 23.0007 20 23H14C13.7167 23 13.479 22.904 13.287 22.712C13.095 22.52 12.9993 22.2827 13 22ZM23 30V22C23 21.7167 23.096 21.479 23.288 21.287C23.48 21.095 23.7173 20.9993 24 21H30C30.2833 21 30.521 21.096 30.713 21.288C30.905 21.48 31.0007 21.7173 31 22V30C31 30.2833 30.904 30.521 30.712 30.713C30.52 30.905 30.2827 31.0007 30 31H24C23.7167 31 23.479 30.904 23.287 30.712C23.095 30.52 22.9993 30.2827 23 30ZM13 30V26C13 25.7167 13.096 25.479 13.288 25.287C13.48 25.095 13.7173 24.9993 14 25H20C20.2833 25 20.521 25.096 20.713 25.288C20.905 25.48 21.0007 25.7173 21 26V30C21 30.2833 20.904 30.521 20.712 30.713C20.52 30.905 20.2827 31.0007 20 31H14C13.7167 31 13.479 30.904 13.287 30.712C13.095 30.52 12.9993 30.2827 13 30ZM15 21H19V15H15V21ZM25 29H29V23H25V29ZM25 17H29V15H25V17ZM15 29H19V27H15V29Z" fill="black"/>
</svg>
