 <svg id="Group_218" data-name="Group 218" xmlns="http://www.w3.org/2000/svg" width="185.036" height="204.18" viewBox="0 0 185.036 204.18">
  <path id="Path_196" data-name="Path 196" d="M182.59,187.035l-45.117,16.882a9.444,9.444,0,0,1-1.954.351,3.349,3.349,0,0,1-.711-.077L66.87,189.7c-6.53,9.126-17.473,14.568-29.753,14.568-20.481,0-35.914-14.593-35.914-33.943,0-1.123.231-2.177.334-3.273a3.525,3.525,0,0,1-.1-.523V137.753c0-21.706,3.5-38.339,7.207-55.94,3.753-17.85,7.627-36.291,8.406-62.136H12.635a3.427,3.427,0,0,1-3.428-3.428V12.564A12.5,12.5,0,0,1,21.693.087H56.279A12.489,12.489,0,0,1,68.756,12.564v3.685a3.432,3.432,0,0,1-3.428,3.428H60.2a293.133,293.133,0,0,0,6.633,52.89L78.7,58.332V38.615a5.632,5.632,0,0,1,6.324-5.579l60.593,7.37a5.647,5.647,0,0,1,4.927,5.587V67.2l33.206,21.672c.017.009.043.009.06.026s.017.026.034.043l.051.034a3.308,3.308,0,0,1,1.1,1.268,5.5,5.5,0,0,1,1.243,3.291v88.247A5.647,5.647,0,0,1,182.59,187.035Zm-112.18-3.591,62.444,13.317-.291-85.744L57.907,95.043v45.991a35.819,35.819,0,0,1,15.142,29.29A33.838,33.838,0,0,1,70.409,183.444ZM37.135,197.412c10.617,0,20-4.833,25.091-12.94a26.074,26.074,0,0,0,3.968-14.148,29.054,29.054,0,1,0-58.108,0C8.077,185.766,20.562,197.412,37.135,197.412Zm-3.119-74.69a14.9,14.9,0,0,1,2.211,4.473,7.235,7.235,0,0,1,3.2-1.971,3.428,3.428,0,0,1,1.954,6.573c-.471.137-.8,1.354-.908,2.811a35.911,35.911,0,0,1,10.574,2.656V93.527c0-.137.077-.257.086-.394a69.69,69.69,0,0,0-2.974-6.624H29.568a94.408,94.408,0,0,0-8.646,29.7C26.912,116.869,31.231,118.994,34.016,122.722Zm-17.113.034q-.707,0-1.465.026c.454,4.987,5.416,8.621,14.816,10.832a10.527,10.527,0,0,0-1.757-6.821C26.475,124.119,22.576,122.756,16.9,122.756Zm-8.6,15v11.354a35.956,35.956,0,0,1,13.479-11.123c-9-3.693-12.211-8.912-12.957-13.531C8.522,128.721,8.3,133.091,8.3,137.753ZM61.892,12.821v-.257a5.623,5.623,0,0,0-5.613-5.621H21.7a5.625,5.625,0,0,0-5.621,5.621Zm-8.552,6.855H23.913c-.788,26.556-4.747,45.349-8.569,63.55A343.8,343.8,0,0,0,9.508,117.4a3.451,3.451,0,0,1,2.271-1.217c.84-.086,1.491-.017,2.288-.069,2.3-20.335,10.129-34.157,10.48-34.757a3.425,3.425,0,0,1,2.965-1.7H50.177a3.432,3.432,0,0,1,2.965,1.705c.857,1.474,1.671,3.059,2.451,4.687l5.647-6.77C57.478,61.632,54.059,43.722,53.339,19.676ZM83.546,63.243l-21.432,25.7,71.459,15.288,9.178-32.341Zm60.139-16.162L85.569,40V56.61l58.117,8.484Zm5.459,27.4L141.157,102.6l32.2-12.323Zm30.232,20.841L139.426,110.6l.077,24.14,39.873-13.282Zm0,33.36-39.847,13.274.077,23.531,39.77-13.891Zm0,30.172-39.744,13.882.077,23.026,39.667-14.842Z" transform="translate(-1.204 -0.087)" fill="#65ca85"/>
  <path id="Path_197" data-name="Path 197" d="M14.633,13.983l34.311,7.344c.111.026.189.094.3.129a3.147,3.147,0,0,1,.626.274,2.76,2.76,0,0,1,.531.36,3.367,3.367,0,0,1,.454.471,3.216,3.216,0,0,1,.36.531,2.831,2.831,0,0,1,.24.6,3.56,3.56,0,0,1,.137.668c.009.111.06.206.069.317L51.8,64.91c0,.043-.026.086-.026.129a3.827,3.827,0,0,1-.137.694,4.389,4.389,0,0,1-.154.6,3.116,3.116,0,0,1-.36.54,3.345,3.345,0,0,1-.394.523,3.146,3.146,0,0,1-.48.326,3.829,3.829,0,0,1-.651.386,1.088,1.088,0,0,1-.1.06,5.581,5.581,0,0,1-1.457.249,3.347,3.347,0,0,1-.711-.077L12.8,60.977a4.359,4.359,0,0,1-3.453-4.285v-38.4a4.355,4.355,0,0,1,1.645-3.428A5.453,5.453,0,0,1,14.633,13.983Zm1.56,40.7,28.724,6.127-.111-33.352L16.193,21.327V54.679Z" transform="translate(63.467 104.727)" fill="#65ca85"/>
</svg>
