<svg xmlns="http://www.w3.org/2000/svg" width="181.781" height="182" viewBox="0 0 181.781 182">
  <g id="Group_270" data-name="Group 270" transform="translate(-16 -16)">
    <path id="Path_225" data-name="Path 225" d="M180.133,400.267A12.133,12.133,0,1,0,168,388.133,12.133,12.133,0,0,0,180.133,400.267Zm0-18.2a6.067,6.067,0,1,1-6.067,6.067A6.067,6.067,0,0,1,180.133,382.067Z" transform="translate(-94.367 -223.5)" fill="#1c843c"/>
    <path id="Path_226" data-name="Path 226" d="M196.407,80.968,181.043,40a3.033,3.033,0,0,0,1.79-2.765v-18.2A3.033,3.033,0,0,0,179.8,16H155.533a3.033,3.033,0,0,0-3.033,3.033v18.2A3.033,3.033,0,0,0,154.29,40l-14,37.325a3.049,3.049,0,0,0,.073-.657V61.5a6.074,6.074,0,0,0-6.067-6.067H116.1a6.074,6.074,0,0,0-6.067,6.067V76.667a3.025,3.025,0,0,0,1.24,2.442L107,86.8V67.567a3.033,3.033,0,0,0-3.033-3.033H94.108A11.388,11.388,0,0,0,82.733,75.908v25.025H52.4V75.15A10.629,10.629,0,0,0,41.783,64.533H27.375A11.388,11.388,0,0,0,16,75.908v113.75A8.351,8.351,0,0,0,24.342,198h79.625a3.022,3.022,0,0,0,1.56-.433,10.627,10.627,0,0,0,2.99.433h33.367a10.552,10.552,0,0,0,5.085-1.3,15.783,15.783,0,0,0,6.312,1.3h28.513a15.925,15.925,0,0,0,15.517-19.506c-.017-.073-.038-.146-.059-.217l-.223-.719a69.242,69.242,0,0,1-1.986-32.782l1.175-6.477a110.612,110.612,0,0,0,1.489-11.809c.185-.392.019-42.157-.431-42.687a25.026,25.026,0,0,0-.868-2.837Zm-37.841-58.9h18.2V34.2h-18.2Zm2.1,18.2h14L190.59,82.733H144.744ZM116.1,61.5h18.2V73.633H116.1Zm-11.468,57.633,1.517,6.067H65.385l1.517-6.067Zm5.4,12.133v6.067H61.5v-6.067ZM40.267,70.6h1.517a4.555,4.555,0,0,1,4.55,4.55v25.783H40.267ZM24.342,191.933a2.277,2.277,0,0,1-2.275-2.275V75.908A5.314,5.314,0,0,1,27.375,70.6H34.2v30.333A6.074,6.074,0,0,0,40.267,107H82.733a6.074,6.074,0,0,0,6.067-6.067V75.908A5.314,5.314,0,0,1,94.108,70.6h6.825v42.467h-36.4a3.033,3.033,0,0,0-2.943,2.3L59.132,125.2h-.665a3.033,3.033,0,0,0-3.033,3.033v12.133a3.033,3.033,0,0,0,3.033,3.033h.318l5.393,48.533Zm76.91,0H70.281L64.889,143.4h41.755Zm45.181-4.55a4.555,4.555,0,0,1-4.55,4.55H108.517a4.56,4.56,0,0,1-1.144-.15l2.005-18.05h36.3a.758.758,0,0,1,.758.758Zm0-20.475a.758.758,0,0,1-.758.758H110.052l1.348-12.133h34.275a.758.758,0,0,1,.758.758Zm0-18.2a.758.758,0,0,1-.758.758h-33.6l.674-6.067h.318a3.033,3.033,0,0,0,3.033-3.033v-3.033h29.575a.758.758,0,0,1,.758.758Zm0-18.2a.758.758,0,0,1-.758.758H116.1v-3.033a3.033,3.033,0,0,0-3.033-3.033H112.4l-1.517-6.067h34.79a.758.758,0,0,1,.758.758Zm-.758-17.442H107v-13.7c.2-.411.414-.819.636-1.218L117.885,79.7h14.631l10.249,18.448a29.228,29.228,0,0,1,3.669,14.16A.758.758,0,0,1,145.675,113.067Zm43.834,75.145a9.807,9.807,0,0,1-7.715,3.721H153.281a10.035,10.035,0,0,1-1.739-.152,10.55,10.55,0,0,0,.958-4.4V174.492a6.785,6.785,0,0,0-1.154-3.792,6.785,6.785,0,0,0,1.154-3.792V156.292a6.785,6.785,0,0,0-1.154-3.792,6.785,6.785,0,0,0,1.154-3.792V138.092a6.785,6.785,0,0,0-1.154-3.792,6.785,6.785,0,0,0,1.154-3.792v-2.275h38.978c-.281,3.013-.689,6.013-1.228,8.981l-1.177,6.477a75.333,75.333,0,0,0,2.161,35.666l.19.6A9.806,9.806,0,0,1,189.509,188.212Zm2.355-66.045H152.5v-2.275a6.785,6.785,0,0,0-1.154-3.792,6.785,6.785,0,0,0,1.154-3.792A35.31,35.31,0,0,0,148.067,95.2l-3.557-6.4h47.4C191.923,89.117,191.906,120.962,191.864,122.167Z" fill="#1c843c"/>
    <path id="Path_227" data-name="Path 227" d="M51.033,328A3.033,3.033,0,0,0,48,331.033V346.2a3.033,3.033,0,0,0,6.067,0V331.033A3.033,3.033,0,0,0,51.033,328Z" transform="translate(-19.867 -193.7)" fill="#1c843c"/>
    <path id="Path_228" data-name="Path 228" d="M51.033,400A3.033,3.033,0,0,0,48,403.033v3.033a3.033,3.033,0,1,0,6.067,0v-3.033A3.033,3.033,0,0,0,51.033,400Z" transform="translate(-19.867 -238.4)" fill="#1c843c"/>
    <path id="Path_229" data-name="Path 229" d="M446.943,336.215a3.033,3.033,0,0,0-3.943,1.69,47.684,47.684,0,0,0-.962,32.749l.9,2.7a3.033,3.033,0,1,0,5.755-1.919l-.9-2.7a41.609,41.609,0,0,1,.84-28.578A3.033,3.033,0,0,0,446.943,336.215Z" transform="translate(-262.983 -198.665)" fill="#1c843c"/>
    <path id="Path_230" data-name="Path 230" d="M439.062,156.939l-1.213-3.033a3.033,3.033,0,0,0-5.633,2.253l1.213,3.033a3.033,3.033,0,1,0,5.633-2.253Z" transform="translate(-258.265 -84.432)" fill="#1c843c"/>
  </g>
</svg>
